%TF.GenerationSoftware,KiCad,Pcbnew,7.0.8*%
%TF.CreationDate,2024-06-10T01:14:46+01:00*%
%TF.ProjectId,BSPD_ManchesterStingerMotorsports,42535044-5f4d-4616-9e63-686573746572,V3.0*%
%TF.SameCoordinates,Original*%
%TF.FileFunction,Legend,Bot*%
%TF.FilePolarity,Positive*%
%FSLAX46Y46*%
G04 Gerber Fmt 4.6, Leading zero omitted, Abs format (unit mm)*
G04 Created by KiCad (PCBNEW 7.0.8) date 2024-06-10 01:14:46*
%MOMM*%
%LPD*%
G01*
G04 APERTURE LIST*
%ADD10C,0.350000*%
G04 APERTURE END LIST*
D10*
X138918000Y-81783000D03*
X138918000Y-84323000D03*
X138918000Y-86863000D03*
X138918000Y-89403000D03*
X138918000Y-91943000D03*
X138918000Y-94483000D03*
X138918000Y-97023000D03*
X146538000Y-97023000D03*
X146538000Y-94483000D03*
X146538000Y-91943000D03*
X146538000Y-89403000D03*
X146538000Y-86863000D03*
X146538000Y-84323000D03*
X146538000Y-81783000D03*
X151618000Y-97023000D03*
X161778000Y-97023000D03*
X151618000Y-110993000D03*
X161778000Y-110993000D03*
X154158000Y-130043000D03*
X154158000Y-132583000D03*
X169388000Y-97873000D03*
X171928000Y-95333000D03*
X174468000Y-97873000D03*
X169938000Y-89403000D03*
X171938000Y-89403000D03*
X99548000Y-113533000D03*
X102088000Y-110993000D03*
X99548000Y-108453000D03*
X159238000Y-130043000D03*
X159238000Y-132583000D03*
X124948000Y-103368000D03*
X124948000Y-105908000D03*
X124948000Y-108448000D03*
X124948000Y-110988000D03*
X124948000Y-113528000D03*
X124948000Y-116068000D03*
X124948000Y-118608000D03*
X132568000Y-118608000D03*
X132568000Y-116068000D03*
X132568000Y-113528000D03*
X132568000Y-110988000D03*
X132568000Y-108448000D03*
X132568000Y-105908000D03*
X132568000Y-103368000D03*
X85578000Y-131313000D03*
X142768000Y-126233000D03*
X147768000Y-126233000D03*
X94468000Y-132583000D03*
X97008000Y-132583000D03*
X94468000Y-130043000D03*
X97008000Y-130043000D03*
X100564000Y-74925000D03*
X172828000Y-125373000D03*
X174328000Y-128773000D03*
X178288000Y-128773000D03*
X109708000Y-114803000D03*
X119868000Y-114803000D03*
X178288000Y-107437000D03*
X185908000Y-107437000D03*
X169938000Y-83053000D03*
X171938000Y-83053000D03*
X189718000Y-99523000D03*
X189718000Y-94523000D03*
X141458000Y-74925000D03*
X172954000Y-74925000D03*
X109708000Y-93453000D03*
X119868000Y-93453000D03*
X178288000Y-88133000D03*
X188448000Y-88133000D03*
X120058000Y-128773000D03*
X136718000Y-131313000D03*
X136718000Y-128773000D03*
X136718000Y-126233000D03*
X151618000Y-89403000D03*
X161778000Y-89403000D03*
X109718000Y-85828000D03*
X119878000Y-85828000D03*
X109708000Y-118613000D03*
X119868000Y-118613000D03*
X142768000Y-131313000D03*
X147768000Y-131313000D03*
X104248000Y-125373000D03*
X105748000Y-128773000D03*
X109708000Y-128773000D03*
X164318000Y-130043000D03*
X164318000Y-132583000D03*
X109708000Y-110993000D03*
X119868000Y-110993000D03*
X85578000Y-77973000D03*
X178288000Y-93213000D03*
X178288000Y-95753000D03*
X178288000Y-98293000D03*
X178288000Y-100833000D03*
X185908000Y-100833000D03*
X185908000Y-98293000D03*
X185908000Y-95753000D03*
X185908000Y-93213000D03*
X124948000Y-81778000D03*
X124948000Y-84318000D03*
X124948000Y-86858000D03*
X124948000Y-89398000D03*
X124948000Y-91938000D03*
X124948000Y-94478000D03*
X124948000Y-97018000D03*
X132568000Y-97018000D03*
X132568000Y-94478000D03*
X132568000Y-91938000D03*
X132568000Y-89398000D03*
X132568000Y-86858000D03*
X132568000Y-84318000D03*
X132568000Y-81778000D03*
X135108000Y-74925000D03*
X109708000Y-107183000D03*
X119868000Y-107183000D03*
X109708000Y-97023000D03*
X119868000Y-97023000D03*
X189718000Y-77973000D03*
X151618000Y-107183000D03*
X161778000Y-107183000D03*
X171938000Y-119883000D03*
X182098000Y-119883000D03*
X189718000Y-119883000D03*
X171938000Y-112263000D03*
X151618000Y-114803000D03*
X161778000Y-114803000D03*
X99548000Y-91943000D03*
X102088000Y-89403000D03*
X99548000Y-86863000D03*
X151618000Y-103373000D03*
X161778000Y-103373000D03*
X109708000Y-89643000D03*
X119868000Y-89643000D03*
X151618000Y-81783000D03*
X161778000Y-81783000D03*
X167366000Y-74925000D03*
X107168000Y-74925000D03*
X178288000Y-84323000D03*
X188448000Y-84323000D03*
X151618000Y-85593000D03*
X161778000Y-85593000D03*
X109718000Y-82018000D03*
X119878000Y-82018000D03*
X169388000Y-106763000D03*
X171928000Y-104223000D03*
X174468000Y-106763000D03*
X151618000Y-93213000D03*
X161778000Y-93213000D03*
X109708000Y-103373000D03*
X119868000Y-103373000D03*
X138918000Y-103373000D03*
X138918000Y-105913000D03*
X138918000Y-108453000D03*
X138918000Y-110993000D03*
X138918000Y-113533000D03*
X138918000Y-116073000D03*
X138918000Y-118613000D03*
X146538000Y-118613000D03*
X146538000Y-116073000D03*
X146538000Y-113533000D03*
X146538000Y-110993000D03*
X146538000Y-108453000D03*
X146538000Y-105913000D03*
X146538000Y-103373000D03*
X189718000Y-131313000D03*
M02*
