%TF.GenerationSoftware,KiCad,Pcbnew,7.0.8*%
%TF.CreationDate,2024-06-10T01:14:46+01:00*%
%TF.ProjectId,BSPD_ManchesterStingerMotorsports,42535044-5f4d-4616-9e63-686573746572,V3.0*%
%TF.SameCoordinates,Original*%
%TF.FileFunction,Soldermask,Bot*%
%TF.FilePolarity,Negative*%
%FSLAX46Y46*%
G04 Gerber Fmt 4.6, Leading zero omitted, Abs format (unit mm)*
G04 Created by KiCad (PCBNEW 7.0.8) date 2024-06-10 01:14:46*
%MOMM*%
%LPD*%
G01*
G04 APERTURE LIST*
G04 Aperture macros list*
%AMRoundRect*
0 Rectangle with rounded corners*
0 $1 Rounding radius*
0 $2 $3 $4 $5 $6 $7 $8 $9 X,Y pos of 4 corners*
0 Add a 4 corners polygon primitive as box body*
4,1,4,$2,$3,$4,$5,$6,$7,$8,$9,$2,$3,0*
0 Add four circle primitives for the rounded corners*
1,1,$1+$1,$2,$3*
1,1,$1+$1,$4,$5*
1,1,$1+$1,$6,$7*
1,1,$1+$1,$8,$9*
0 Add four rect primitives between the rounded corners*
20,1,$1+$1,$2,$3,$4,$5,0*
20,1,$1+$1,$4,$5,$6,$7,0*
20,1,$1+$1,$6,$7,$8,$9,0*
20,1,$1+$1,$8,$9,$2,$3,0*%
G04 Aperture macros list end*
%ADD10R,1.600000X1.600000*%
%ADD11O,1.600000X1.600000*%
%ADD12C,1.600000*%
%ADD13R,1.800000X1.800000*%
%ADD14C,1.800000*%
%ADD15R,1.500000X1.500000*%
%ADD16C,1.500000*%
%ADD17C,1.440000*%
%ADD18C,5.600000*%
%ADD19C,1.100000*%
%ADD20R,2.200000X2.200000*%
%ADD21C,2.200000*%
%ADD22C,2.000000*%
%ADD23C,1.450000*%
%ADD24RoundRect,0.250001X-1.099999X-1.099999X1.099999X-1.099999X1.099999X1.099999X-1.099999X1.099999X0*%
%ADD25C,2.700000*%
%ADD26O,3.500000X3.500000*%
%ADD27R,2.000000X1.905000*%
%ADD28O,2.000000X1.905000*%
%ADD29C,1.950000*%
G04 APERTURE END LIST*
D10*
%TO.C,U4*%
X138918000Y-81783000D03*
D11*
X138918000Y-84323000D03*
X138918000Y-86863000D03*
X138918000Y-89403000D03*
X138918000Y-91943000D03*
X138918000Y-94483000D03*
X138918000Y-97023000D03*
X146538000Y-97023000D03*
X146538000Y-94483000D03*
X146538000Y-91943000D03*
X146538000Y-89403000D03*
X146538000Y-86863000D03*
X146538000Y-84323000D03*
X146538000Y-81783000D03*
%TD*%
D12*
%TO.C,R13*%
X151618000Y-97023000D03*
D11*
X161778000Y-97023000D03*
%TD*%
D12*
%TO.C,R12*%
X151618000Y-110993000D03*
D11*
X161778000Y-110993000D03*
%TD*%
D13*
%TO.C,D1*%
X154158000Y-130043000D03*
D14*
X154158000Y-132583000D03*
%TD*%
D15*
%TO.C,Q1*%
X169388000Y-97873000D03*
D16*
X171928000Y-95333000D03*
X174468000Y-97873000D03*
%TD*%
D10*
%TO.C,C4*%
X169938000Y-89403000D03*
D12*
X171938000Y-89403000D03*
%TD*%
D17*
%TO.C,RV2*%
X99548000Y-113533000D03*
X102088000Y-110993000D03*
X99548000Y-108453000D03*
%TD*%
D13*
%TO.C,D2*%
X159238000Y-130043000D03*
D14*
X159238000Y-132583000D03*
%TD*%
D10*
%TO.C,U2*%
X124948000Y-103368000D03*
D11*
X124948000Y-105908000D03*
X124948000Y-108448000D03*
X124948000Y-110988000D03*
X124948000Y-113528000D03*
X124948000Y-116068000D03*
X124948000Y-118608000D03*
X132568000Y-118608000D03*
X132568000Y-116068000D03*
X132568000Y-113528000D03*
X132568000Y-110988000D03*
X132568000Y-108448000D03*
X132568000Y-105908000D03*
X132568000Y-103368000D03*
%TD*%
D18*
%TO.C,H4*%
X85578000Y-131313000D03*
%TD*%
D12*
%TO.C,C3*%
X142768000Y-126233000D03*
X147768000Y-126233000D03*
%TD*%
D19*
%TO.C,J2*%
X94468000Y-132583000D03*
X97008000Y-132583000D03*
D20*
X94468000Y-130043000D03*
D21*
X97008000Y-130043000D03*
%TD*%
D22*
%TO.C,TP2*%
X100564000Y-74925000D03*
%TD*%
D23*
%TO.C,J3*%
X172828000Y-125373000D03*
D24*
X174328000Y-128773000D03*
D25*
X178288000Y-128773000D03*
%TD*%
D12*
%TO.C,R4*%
X109708000Y-114803000D03*
D11*
X119868000Y-114803000D03*
%TD*%
D10*
%TO.C,D4*%
X178288000Y-107437000D03*
D11*
X185908000Y-107437000D03*
%TD*%
D10*
%TO.C,C1*%
X169938000Y-83053000D03*
D12*
X171938000Y-83053000D03*
%TD*%
%TO.C,C5*%
X189718000Y-99523000D03*
X189718000Y-94523000D03*
%TD*%
D22*
%TO.C,TP3*%
X141458000Y-74925000D03*
%TD*%
%TO.C,TP6*%
X172954000Y-74925000D03*
%TD*%
D12*
%TO.C,R9*%
X109708000Y-93453000D03*
D11*
X119868000Y-93453000D03*
%TD*%
D12*
%TO.C,R19*%
X178288000Y-88133000D03*
D11*
X188448000Y-88133000D03*
%TD*%
D26*
%TO.C,U5*%
X120058000Y-128773000D03*
D27*
X136718000Y-131313000D03*
D28*
X136718000Y-128773000D03*
X136718000Y-126233000D03*
%TD*%
D12*
%TO.C,R15*%
X151618000Y-89403000D03*
D11*
X161778000Y-89403000D03*
%TD*%
D12*
%TO.C,R5*%
X109718000Y-85828000D03*
D11*
X119878000Y-85828000D03*
%TD*%
D12*
%TO.C,R6*%
X109708000Y-118613000D03*
D11*
X119868000Y-118613000D03*
%TD*%
D12*
%TO.C,C2*%
X142768000Y-131313000D03*
X147768000Y-131313000D03*
%TD*%
D23*
%TO.C,J1*%
X104248000Y-125373000D03*
D24*
X105748000Y-128773000D03*
D25*
X109708000Y-128773000D03*
%TD*%
D13*
%TO.C,D3*%
X164318000Y-130043000D03*
D14*
X164318000Y-132583000D03*
%TD*%
D12*
%TO.C,R10*%
X109708000Y-110993000D03*
D11*
X119868000Y-110993000D03*
%TD*%
D18*
%TO.C,H3*%
X85578000Y-77973000D03*
%TD*%
D10*
%TO.C,U6*%
X178288000Y-93213000D03*
D11*
X178288000Y-95753000D03*
X178288000Y-98293000D03*
X178288000Y-100833000D03*
X185908000Y-100833000D03*
X185908000Y-98293000D03*
X185908000Y-95753000D03*
X185908000Y-93213000D03*
%TD*%
D10*
%TO.C,U1*%
X124948000Y-81778000D03*
D11*
X124948000Y-84318000D03*
X124948000Y-86858000D03*
X124948000Y-89398000D03*
X124948000Y-91938000D03*
X124948000Y-94478000D03*
X124948000Y-97018000D03*
X132568000Y-97018000D03*
X132568000Y-94478000D03*
X132568000Y-91938000D03*
X132568000Y-89398000D03*
X132568000Y-86858000D03*
X132568000Y-84318000D03*
X132568000Y-81778000D03*
%TD*%
D22*
%TO.C,TP4*%
X135108000Y-74925000D03*
%TD*%
D12*
%TO.C,R2*%
X109708000Y-107183000D03*
D11*
X119868000Y-107183000D03*
%TD*%
D12*
%TO.C,R7*%
X109708000Y-97023000D03*
D11*
X119868000Y-97023000D03*
%TD*%
D18*
%TO.C,H1*%
X189718000Y-77973000D03*
%TD*%
D12*
%TO.C,R14*%
X151618000Y-107183000D03*
D11*
X161778000Y-107183000D03*
%TD*%
D29*
%TO.C,K1*%
X171938000Y-119883000D03*
X182098000Y-119883000D03*
X189718000Y-119883000D03*
X171938000Y-112263000D03*
%TD*%
D12*
%TO.C,R11*%
X151618000Y-114803000D03*
D11*
X161778000Y-114803000D03*
%TD*%
D17*
%TO.C,RV1*%
X99548000Y-91943000D03*
X102088000Y-89403000D03*
X99548000Y-86863000D03*
%TD*%
D12*
%TO.C,R21*%
X151618000Y-103373000D03*
D11*
X161778000Y-103373000D03*
%TD*%
D12*
%TO.C,R1*%
X109708000Y-89643000D03*
D11*
X119868000Y-89643000D03*
%TD*%
D12*
%TO.C,R16*%
X151618000Y-81783000D03*
D11*
X161778000Y-81783000D03*
%TD*%
D22*
%TO.C,TP5*%
X167366000Y-74925000D03*
%TD*%
%TO.C,TP1*%
X107168000Y-74925000D03*
%TD*%
D12*
%TO.C,R20*%
X178288000Y-84323000D03*
D11*
X188448000Y-84323000D03*
%TD*%
D12*
%TO.C,R17*%
X151618000Y-85593000D03*
D11*
X161778000Y-85593000D03*
%TD*%
D12*
%TO.C,R3*%
X109718000Y-82018000D03*
D11*
X119878000Y-82018000D03*
%TD*%
D15*
%TO.C,Q2*%
X169388000Y-106763000D03*
D16*
X171928000Y-104223000D03*
X174468000Y-106763000D03*
%TD*%
D12*
%TO.C,R18*%
X151618000Y-93213000D03*
D11*
X161778000Y-93213000D03*
%TD*%
D12*
%TO.C,R8*%
X109708000Y-103373000D03*
D11*
X119868000Y-103373000D03*
%TD*%
D10*
%TO.C,U3*%
X138918000Y-103373000D03*
D11*
X138918000Y-105913000D03*
X138918000Y-108453000D03*
X138918000Y-110993000D03*
X138918000Y-113533000D03*
X138918000Y-116073000D03*
X138918000Y-118613000D03*
X146538000Y-118613000D03*
X146538000Y-116073000D03*
X146538000Y-113533000D03*
X146538000Y-110993000D03*
X146538000Y-108453000D03*
X146538000Y-105913000D03*
X146538000Y-103373000D03*
%TD*%
D18*
%TO.C,H2*%
X189718000Y-131313000D03*
%TD*%
M02*
