M48
; DRILL file {KiCad 7.0.8} date Mon Jun 10 01:14:45 2024
; FORMAT={-:-/ absolute / metric / decimal}
; #@! TF.CreationDate,2024-06-10T01:14:45+01:00
; #@! TF.GenerationSoftware,Kicad,Pcbnew,7.0.8
; #@! TF.FileFunction,Plated,1,2,PTH
FMAT,2
METRIC
; #@! TA.AperFunction,Plated,PTH,ComponentDrill
T1C0.800
; #@! TA.AperFunction,Plated,PTH,ComponentDrill
T2C0.900
; #@! TA.AperFunction,Plated,PTH,ComponentDrill
T3C1.000
; #@! TA.AperFunction,Plated,PTH,ComponentDrill
T4C1.100
; #@! TA.AperFunction,Plated,PTH,ComponentDrill
T5C1.300
; #@! TA.AperFunction,Plated,PTH,ComponentDrill
T6C1.700
; #@! TA.AperFunction,Plated,PTH,ComponentDrill
T7C3.200
%
G90
G05
T1
X19.05Y49.53
X19.05Y44.45
X19.05Y27.94
X19.05Y22.86
X21.59Y46.99
X21.59Y25.4
X29.21Y46.75
X29.21Y42.94
X29.21Y39.37
X29.21Y33.02
X29.21Y29.21
X29.21Y25.4
X29.21Y21.59
X29.21Y17.78
X29.22Y54.375
X29.22Y50.565
X39.37Y46.75
X39.37Y42.94
X39.37Y39.37
X39.37Y33.02
X39.37Y29.21
X39.37Y25.4
X39.37Y21.59
X39.37Y17.78
X39.38Y54.375
X39.38Y50.565
X44.45Y54.615
X44.45Y52.075
X44.45Y49.535
X44.45Y46.995
X44.45Y44.455
X44.45Y41.915
X44.45Y39.375
X44.45Y33.025
X44.45Y30.485
X44.45Y27.945
X44.45Y25.405
X44.45Y22.865
X44.45Y20.325
X44.45Y17.785
X52.07Y54.615
X52.07Y52.075
X52.07Y49.535
X52.07Y46.995
X52.07Y44.455
X52.07Y41.915
X52.07Y39.375
X52.07Y33.025
X52.07Y30.485
X52.07Y27.945
X52.07Y25.405
X52.07Y22.865
X52.07Y20.325
X52.07Y17.785
X58.42Y54.61
X58.42Y52.07
X58.42Y49.53
X58.42Y46.99
X58.42Y44.45
X58.42Y41.91
X58.42Y39.37
X58.42Y33.02
X58.42Y30.48
X58.42Y27.94
X58.42Y25.4
X58.42Y22.86
X58.42Y20.32
X58.42Y17.78
X62.27Y10.16
X62.27Y5.08
X66.04Y54.61
X66.04Y52.07
X66.04Y49.53
X66.04Y46.99
X66.04Y44.45
X66.04Y41.91
X66.04Y39.37
X66.04Y33.02
X66.04Y30.48
X66.04Y27.94
X66.04Y25.4
X66.04Y22.86
X66.04Y20.32
X66.04Y17.78
X67.27Y10.16
X67.27Y5.08
X71.12Y54.61
X71.12Y50.8
X71.12Y46.99
X71.12Y43.18
X71.12Y39.37
X71.12Y33.02
X71.12Y29.21
X71.12Y25.4
X71.12Y21.59
X81.28Y54.61
X81.28Y50.8
X81.28Y46.99
X81.28Y43.18
X81.28Y39.37
X81.28Y33.02
X81.28Y29.21
X81.28Y25.4
X81.28Y21.59
X88.89Y38.52
X88.89Y29.63
X89.44Y53.34
X89.44Y46.99
X91.43Y41.06
X91.43Y32.17
X91.44Y53.34
X91.44Y46.99
X93.97Y38.52
X93.97Y29.63
X97.79Y52.07
X97.79Y48.26
X97.79Y43.18
X97.79Y40.64
X97.79Y38.1
X97.79Y35.56
X97.79Y28.956
X105.41Y43.18
X105.41Y40.64
X105.41Y38.1
X105.41Y35.56
X105.41Y28.956
X107.95Y52.07
X107.95Y48.26
X109.22Y41.87
X109.22Y36.87
T2
X73.66Y6.35
X73.66Y3.81
X78.74Y6.35
X78.74Y3.81
X83.82Y6.35
X83.82Y3.81
T3
X20.066Y61.468
X26.67Y61.468
X54.61Y61.468
X60.96Y61.468
X86.868Y61.468
X92.456Y61.468
T4
X13.97Y6.35
X16.51Y6.35
X56.22Y10.16
X56.22Y7.62
X56.22Y5.08
T5
X91.44Y24.13
X91.44Y16.51
X101.6Y16.51
X109.22Y16.51
T6
X25.25Y7.62
X29.21Y7.62
X93.83Y7.62
X97.79Y7.62
T7
X5.08Y58.42
X5.08Y5.08
X109.22Y58.42
X109.22Y5.08
T0
M30
