M48
METRIC,TZ
T1C0.800
T2C0.900
T3C1.000
T4C1.100
T5C1.300
T6C1.700
T7C3.200
%
G90
G05
T1
X19050Y49530
X19050Y44450
X19050Y27940
X19050Y22860
X21590Y46990
X21590Y25400
X29210Y46750
X29210Y42940
X29210Y39370
X29210Y33020
X29210Y29210
X29210Y25400
X29210Y21590
X29210Y17780
X29220Y54375
X29220Y50565
X39370Y46750
X39370Y42940
X39370Y39370
X39370Y33020
X39370Y29210
X39370Y25400
X39370Y21590
X39370Y17780
X39380Y54375
X39380Y50565
X44450Y54615
X44450Y52075
X44450Y49535
X44450Y46995
X44450Y44455
X44450Y41915
X44450Y39375
X44450Y33025
X44450Y30485
X44450Y27945
X44450Y25405
X44450Y22865
X44450Y20325
X44450Y17785
X52070Y54615
X52070Y52075
X52070Y49535
X52070Y46995
X52070Y44455
X52070Y41915
X52070Y39375
X52070Y33025
X52070Y30485
X52070Y27945
X52070Y25405
X52070Y22865
X52070Y20325
X52070Y17785
X58420Y54610
X58420Y52070
X58420Y49530
X58420Y46990
X58420Y44450
X58420Y41910
X58420Y39370
X58420Y33020
X58420Y30480
X58420Y27940
X58420Y25400
X58420Y22860
X58420Y20320
X58420Y17780
X62270Y10160
X62270Y5080
X66040Y54610
X66040Y52070
X66040Y49530
X66040Y46990
X66040Y44450
X66040Y41910
X66040Y39370
X66040Y33020
X66040Y30480
X66040Y27940
X66040Y25400
X66040Y22860
X66040Y20320
X66040Y17780
X67270Y10160
X67270Y5080
X71120Y54610
X71120Y50800
X71120Y46990
X71120Y43180
X71120Y39370
X71120Y33020
X71120Y29210
X71120Y25400
X71120Y21590
X81280Y54610
X81280Y50800
X81280Y46990
X81280Y43180
X81280Y39370
X81280Y33020
X81280Y29210
X81280Y25400
X81280Y21590
X88890Y38520
X88890Y29630
X89440Y53340
X89440Y46990
X91430Y41060
X91430Y32170
X91440Y53340
X91440Y46990
X93970Y38520
X93970Y29630
X97790Y52070
X97790Y48260
X97790Y43180
X97790Y40640
X97790Y38100
X97790Y35560
X97790Y28956
X105410Y43180
X105410Y40640
X105410Y38100
X105410Y35560
X105410Y28956
X107950Y52070
X107950Y48260
X109220Y41870
X109220Y36870
T2
X73660Y6350
X73660Y3810
X78740Y6350
X78740Y3810
X83820Y6350
X83820Y3810
T3
X20066Y61468
X26670Y61468
X54610Y61468
X60960Y61468
X86868Y61468
X92456Y61468
T4
X13970Y6350
X16510Y6350
X56220Y10160
X56220Y7620
X56220Y5080
T5
X91440Y24130
X91440Y16510
X101600Y16510
X109220Y16510
T6
X25250Y7620
X29210Y7620
X93830Y7620
X97790Y7620
T7
X5080Y58420
X5080Y5080
X109220Y58420
X109220Y5080
T0
M30
