M48
; DRILL file {KiCad 7.0.8} date Mon Jun 10 01:14:45 2024
; FORMAT={-:-/ absolute / metric / decimal}
; #@! TF.CreationDate,2024-06-10T01:14:45+01:00
; #@! TF.GenerationSoftware,Kicad,Pcbnew,7.0.8
; #@! TF.FileFunction,Plated,1,2,PTH
FMAT,2
METRIC
; #@! TA.AperFunction,Plated,PTH,ComponentDrill
T1C0.800
; #@! TA.AperFunction,Plated,PTH,ComponentDrill
T2C0.900
; #@! TA.AperFunction,Plated,PTH,ComponentDrill
T3C1.000
; #@! TA.AperFunction,Plated,PTH,ComponentDrill
T4C1.100
; #@! TA.AperFunction,Plated,PTH,ComponentDrill
T5C1.300
; #@! TA.AperFunction,Plated,PTH,ComponentDrill
T6C1.700
; #@! TA.AperFunction,Plated,PTH,ComponentDrill
T7C3.200
%
G90
G05
T1
X99.548Y-86.863
X99.548Y-91.943
X99.548Y-108.453
X99.548Y-113.533
X102.088Y-89.403
X102.088Y-110.993
X109.708Y-89.643
X109.708Y-93.453
X109.708Y-97.023
X109.708Y-103.373
X109.708Y-107.183
X109.708Y-110.993
X109.708Y-114.803
X109.708Y-118.613
X109.718Y-82.018
X109.718Y-85.828
X119.868Y-89.643
X119.868Y-93.453
X119.868Y-97.023
X119.868Y-103.373
X119.868Y-107.183
X119.868Y-110.993
X119.868Y-114.803
X119.868Y-118.613
X119.878Y-82.018
X119.878Y-85.828
X124.948Y-81.778
X124.948Y-84.318
X124.948Y-86.858
X124.948Y-89.398
X124.948Y-91.938
X124.948Y-94.478
X124.948Y-97.018
X124.948Y-103.368
X124.948Y-105.908
X124.948Y-108.448
X124.948Y-110.988
X124.948Y-113.528
X124.948Y-116.068
X124.948Y-118.608
X132.568Y-81.778
X132.568Y-84.318
X132.568Y-86.858
X132.568Y-89.398
X132.568Y-91.938
X132.568Y-94.478
X132.568Y-97.018
X132.568Y-103.368
X132.568Y-105.908
X132.568Y-108.448
X132.568Y-110.988
X132.568Y-113.528
X132.568Y-116.068
X132.568Y-118.608
X138.918Y-81.783
X138.918Y-84.323
X138.918Y-86.863
X138.918Y-89.403
X138.918Y-91.943
X138.918Y-94.483
X138.918Y-97.023
X138.918Y-103.373
X138.918Y-105.913
X138.918Y-108.453
X138.918Y-110.993
X138.918Y-113.533
X138.918Y-116.073
X138.918Y-118.613
X142.768Y-126.233
X142.768Y-131.313
X146.538Y-81.783
X146.538Y-84.323
X146.538Y-86.863
X146.538Y-89.403
X146.538Y-91.943
X146.538Y-94.483
X146.538Y-97.023
X146.538Y-103.373
X146.538Y-105.913
X146.538Y-108.453
X146.538Y-110.993
X146.538Y-113.533
X146.538Y-116.073
X146.538Y-118.613
X147.768Y-126.233
X147.768Y-131.313
X151.618Y-81.783
X151.618Y-85.593
X151.618Y-89.403
X151.618Y-93.213
X151.618Y-97.023
X151.618Y-103.373
X151.618Y-107.183
X151.618Y-110.993
X151.618Y-114.803
X161.778Y-81.783
X161.778Y-85.593
X161.778Y-89.403
X161.778Y-93.213
X161.778Y-97.023
X161.778Y-103.373
X161.778Y-107.183
X161.778Y-110.993
X161.778Y-114.803
X169.388Y-97.873
X169.388Y-106.763
X169.938Y-83.053
X169.938Y-89.403
X171.928Y-95.333
X171.928Y-104.223
X171.938Y-83.053
X171.938Y-89.403
X174.468Y-97.873
X174.468Y-106.763
X178.288Y-84.323
X178.288Y-88.133
X178.288Y-93.213
X178.288Y-95.753
X178.288Y-98.293
X178.288Y-100.833
X178.288Y-107.437
X185.908Y-93.213
X185.908Y-95.753
X185.908Y-98.293
X185.908Y-100.833
X185.908Y-107.437
X188.448Y-84.323
X188.448Y-88.133
X189.718Y-94.523
X189.718Y-99.523
T2
X154.158Y-130.043
X154.158Y-132.583
X159.238Y-130.043
X159.238Y-132.583
X164.318Y-130.043
X164.318Y-132.583
T3
X100.564Y-74.925
X107.168Y-74.925
X135.108Y-74.925
X141.458Y-74.925
X167.366Y-74.925
X172.954Y-74.925
T4
X94.468Y-130.043
X97.008Y-130.043
X136.718Y-126.233
X136.718Y-128.773
X136.718Y-131.313
T5
X171.938Y-112.263
X171.938Y-119.883
X182.098Y-119.883
X189.718Y-119.883
T6
X105.748Y-128.773
X109.708Y-128.773
X174.328Y-128.773
X178.288Y-128.773
T7
X85.578Y-77.973
X85.578Y-131.313
X189.718Y-77.973
X189.718Y-131.313
T0
M30
